<svg xmlns="http://www.w3.org/2000/svg" width="181" height="36.03370743173491" style=""><rect id="backgroundrect" width="100%" height="100%" x="0" y="0" fill="none" stroke="none" style="" class="selected"/><defs><style>.cls-1{fill:#683ab7;}.cls-2{fill:#6739b7;}.cls-3{fill:#dfdfdf;}</style></defs><g class="currentLayer" style=""><title>Layer 1</title><g id="CarSense" class="" fill="#ffffff" fill-opacity="1"><path d="M14.87999938964844,27.45999969482422 a16.72,16.72 0 0 0 4,-0.39000000000000007 a16.42,16.42 0 0 0 3.1,-1.1 l1,3.55 a14.37,14.37 0 0 1 -3.67,1.2 a26,26 0 0 1 -4.88,0.39000000000000007 a15.64,15.64 0 0 1 -5.61,-1 a12.7,12.7 0 0 1 -4.59,-3 a14.07,14.07 0 0 1 -3.07,-4.87 a20.3,20.3 0 0 1 0,-13.3 a14,14 0 0 1 3.05,-4.890000000000001 a12.68,12.68 0 0 1 4.63,-3 a16.34,16.34 0 0 1 5.85,-1 a20.7,20.7 0 0 1 4.9,0.48000000000000004 a17,17 0 0 1 3.55,1.3 L22.039999389648436,5.229999694824215 L20.329999389648435,4.569999694824219 a12.08,12.08 0 0 0 -1.58,-0.51 a14.6,14.6 0 0 0 -1.6300000000000001,-0.28 a15.59,15.59 0 0 0 -1.9,-0.1 a12.35,12.35 0 0 0 -4,0.6500000000000001 a8.37,8.37 0 0 0 -3.31,2.09 A10.21,10.21 0 0 0 5.6399993896484375,10.109999694824225 a15.93,15.93 0 0 0 -0.8400000000000001,5.49 a16.14,16.14 0 0 0 0.8200000000000001,5.52 a9.88,9.88 0 0 0 2.18,3.6500000000000004 a8.38,8.38 0 0 0 3.19,2 A11.63,11.63 0 0 0 14.87999938964844,27.45999969482422 z" id="svg_6" fill="#ffffff" fill-opacity="1"/><path d="M27.69999938964844,10.129999694824221 c0.77,-0.38000000000000006 1.49,-0.7300000000000001 2.16,-1 a14.9,14.9 0 0 1 2,-0.7500000000000001 a15.83,15.83 0 0 1 2.07,-0.43000000000000005 a18.1,18.1 0 0 1 2.3,-0.14 a13.61,13.61 0 0 1 3.43,0.41000000000000003 A6.65,6.65 0 0 1 42.359999389648436,9.569999694824219 a6.27,6.27 0 0 1 1.75,2.52 a10.55,10.55 0 0 1 0.6300000000000001,3.92 V30.669999694824213 H41.22999938964844 l-0.52,-2.49 H40.63999938964844 a8.68,8.68 0 0 1 -3.26,2.25 a11,11 0 0 1 -3.94,0.6800000000000002 a9.53,9.53 0 0 1 -3,-0.46 a7.3,7.3 0 0 1 -2.38,-1.3 a5.8,5.8 0 0 1 -1.56,-2 a6.45,6.45 0 0 1 -0.55,-2.68 a6.06,6.06 0 0 1 2.81,-5.4 a13.22,13.22 0 0 1 7.42,-1.85 h4.32 v-1.92 c0,-1.6300000000000001 -0.42000000000000004,-2.74 -1.25,-3.34 a5.7,5.7 0 0 0 -3.36,-0.8900000000000001 a11.91,11.91 0 0 0 -2.8600000000000003,0.41000000000000003 a15.58,15.58 0 0 0 -3.67,1.56 zm12.81,10.13 l-3.55,0.09000000000000002 c-2.4,0.07 -4.1,0.49000000000000005 -5.11,1.28 a3.49,3.49 0 0 0 -1.51,2.85 a4,4 0 0 0 0.33000000000000007,1.71 a2.8200000000000003,2.8200000000000003 0 0 0 0.8900000000000001,1.08 a3.73,3.73 0 0 0 1.3,0.55 a7.1,7.1 0 0 0 1.56,0.17 a7.72,7.72 0 0 0 6.09,-3.12 z" id="svg_7" fill="#ffffff" fill-opacity="1"/><path d="M50.829999389648435,30.669999694824213 V8.109999694824225 h3.17 l0.7200000000000001,4.52 a7.54,7.54 0 0 1 2.6900000000000004,-3.51 a7.26,7.26 0 0 1 4.32,-1.34 a9.08,9.08 0 0 1 2.06,0.19000000000000003 a9.31,9.31 0 0 1 1.49,0.48000000000000004 l-0.81,3.7 a6.38,6.38 0 0 0 -2.93,-0.6800000000000002 a6.72,6.72 0 0 0 -2.5700000000000003,0.48000000000000004 a5.74,5.74 0 0 0 -2.06,1.44 a6.65,6.65 0 0 0 -1.3900000000000001,2.38 a9.5,9.5 0 0 0 -0.51,3.24 V30.669999694824213 z" id="svg_8" fill="#ffffff" fill-opacity="1"/><path class="cls-2" d="M77.85999938964844,-3.0517577442878974e-7 a24.85,24.85 0 0 1 4.27,0.36000000000000004 a15.67,15.67 0 0 1 4.08,1.32 l-1.06,3.6500000000000004 a20.3,20.3 0 0 0 -3.72,-1.37 a14.15,14.15 0 0 0 -3.38,-0.41000000000000003 a7,7 0 0 0 -4.32,1.2 a4,4 0 0 0 -1.58,3.36 a3.83,3.83 0 0 0 1.17,2.93 a9.83,9.83 0 0 0 3.87,1.92 l3,1 c2.75,0.8700000000000001 4.7,2 5.83,3.5300000000000002 a8,8 0 0 1 1.71,5 a7.93,7.93 0 0 1 -3,6.3100000000000005 a10.28,10.28 0 0 1 -3.34,1.73 a14.11,14.11 0 0 1 -4.22,0.6000000000000001 a27.76,27.76 0 0 1 -4.68,-0.41000000000000003 a18.57,18.57 0 0 1 -4.73,-1.51 l1,-3.6 a20.07,20.07 0 0 0 4,1.48 a16.85,16.85 0 0 0 4.12,0.48000000000000004 a7.87,7.87 0 0 0 4.42,-1.2 a4,4 0 0 0 1.82,-3.55 a4.73,4.73 0 0 0 -0.26,-1.61 a4.09,4.09 0 0 0 -0.91,-1.4100000000000001 a6.67,6.67 0 0 0 -1.75,-1.25 a17.82,17.82 0 0 0 -2.79,-1.1 l-3,-1 A12.19,12.19 0 0 1 69.40999938964843,13.569999694824219 a6.82,6.82 0 0 1 -1.78,-5 a8,8 0 0 1 2.62,-6.3100000000000005 Q72.85999938964844,-3.0517577442878974e-7 77.85999938964844,-3.0517577442878974e-7 z" id="svg_9" fill="#ffffff" fill-opacity="1"/><path class="cls-2" d="M112.22999938964844,19.869999694824216 H96.04999938964843 v0.2 a7.76,7.76 0 0 0 2,5.76 a7.55,7.55 0 0 0 5.54,2 a15.72,15.72 0 0 0 3.24,-0.29000000000000004 a17.71,17.71 0 0 0 3.1,-1 l0.8600000000000001,3.12 a15,15 0 0 1 -3.2800000000000002,1 a20.2,20.2 0 0 1 -4.06,0.39000000000000007 a15.1,15.1 0 0 1 -4.58,-0.6800000000000002 a10.38,10.38 0 0 1 -3.77,-2.08 a9.76,9.76 0 0 1 -2.5700000000000003,-3.63 a13.54,13.54 0 0 1 -0.9400000000000001,-5.28 a13.81,13.81 0 0 1 0.8,-4.8 A10.36,10.36 0 0 1 94.63999938964844,10.969999694824224 a10,10 0 0 1 3.48,-2.35 a11.94,11.94 0 0 1 4.58,-0.8400000000000001 a10.16,10.16 0 0 1 3.91,0.7200000000000001 a8.55,8.55 0 0 1 4.92,5.13 a11.57,11.57 0 0 1 0.6800000000000002,4 zm-4.37,-3 a8.69,8.69 0 0 0 -0.31000000000000005,-2.33 a5.44,5.44 0 0 0 -1,-1.8900000000000001 a4.65,4.65 0 0 0 -1.6600000000000001,-1.3 a5.66,5.66 0 0 0 -2.45,-0.48000000000000004 a5.75,5.75 0 0 0 -4.29,1.6800000000000002 a7.51,7.51 0 0 0 -2,4.42 z" id="svg_10" fill="#ffffff" fill-opacity="1"/><path class="cls-2" d="M121.43999938964845,30.669999694824213 h-4.22 V8.109999694824225 h3.31 l0.6200000000000001,3.12 A12.91,12.91 0 0 1 124.63999938964844,8.669999694824213 a9.59,9.59 0 0 1 4.25,-0.8900000000000001 a7.4,7.4 0 0 1 5.42,1.94 a7.23,7.23 0 0 1 2,5.4 V30.669999694824213 h-4.22 V15.749999694824226 a4.78,4.78 0 0 0 -1.08,-3.29 a4.15,4.15 0 0 0 -3.29,-1.23 a8.68,8.68 0 0 0 -6.29,3 z" id="svg_11" fill="#ffffff" fill-opacity="1"/><path class="cls-2" d="M155.51999938964843,12.339999694824215 a13.17,13.17 0 0 0 -2.88,-1.06 a12,12 0 0 0 -2.59,-0.29000000000000004 a5.7,5.7 0 0 0 -3.41,0.8400000000000001 a2.66,2.66 0 0 0 -1.1,2.24 a2.34,2.34 0 0 0 0.77,1.75 a8.3,8.3 0 0 0 3.21,1.46 l1.44,0.43000000000000005 a12.57,12.57 0 0 1 4.87,2.48 a5.24,5.24 0 0 1 1.6600000000000001,4.1 a6.06,6.06 0 0 1 -2.2800000000000002,4.94 a9.74,9.74 0 0 1 -6.36,1.8800000000000001 a21.49,21.49 0 0 1 -4.15,-0.39000000000000007 a14.88,14.88 0 0 1 -3.44,-1.05 l1,-3.3200000000000003 a15.48,15.48 0 0 0 3,1.08 a13.22,13.22 0 0 0 3.31,0.41000000000000003 a6.53,6.53 0 0 0 3.43,-0.77 a2.73,2.73 0 0 0 1.27,-2.54 a2.33,2.33 0 0 0 -1.1,-2.18 a14.89,14.89 0 0 0 -3.17,-1.28 l-1.49,-0.48000000000000004 a11.45,11.45 0 0 1 -4.63,-2.52 a5.27,5.27 0 0 1 -1.51,-3.91 a5.71,5.71 0 0 1 0.6200000000000001,-2.64 a5.92,5.92 0 0 1 1.71,-2 a8.14,8.14 0 0 1 2.5700000000000003,-1.28 a11.22,11.22 0 0 1 3.26,-0.45 a20.16,20.16 0 0 1 3.48,0.31000000000000005 a14.78,14.78 0 0 1 3.43,1 z" id="svg_12" fill="#ffffff" fill-opacity="1"/><path class="cls-2" d="M181.34999938964845,19.869999694824216 H165.16999938964844 v0.2 a7.76,7.76 0 0 0 2,5.76 a7.55,7.55 0 0 0 5.54,2 a15.72,15.72 0 0 0 3.24,-0.29000000000000004 a17.71,17.71 0 0 0 3.1,-1 l0.8600000000000001,3.12 a15,15 0 0 1 -3.2800000000000002,1 a20.2,20.2 0 0 1 -4.06,0.39000000000000007 a15.1,15.1 0 0 1 -4.58,-0.6800000000000002 a10.38,10.38 0 0 1 -3.77,-2.08 a9.76,9.76 0 0 1 -2.5700000000000003,-3.63 a13.54,13.54 0 0 1 -0.9400000000000001,-5.28 a13.81,13.81 0 0 1 0.8,-4.8 a10.36,10.36 0 0 1 2.23,-3.67 a10,10 0 0 1 3.48,-2.35 a11.94,11.94 0 0 1 4.58,-0.8400000000000001 a10.16,10.16 0 0 1 3.91,0.7200000000000001 a8.55,8.55 0 0 1 4.92,5.13 a11.57,11.57 0 0 1 0.6800000000000002,4 zm-4.37,-3 A8.69,8.69 0 0 0 176.63999938964844,14.569999694824219 a5.44,5.44 0 0 0 -1,-1.8900000000000001 a4.65,4.65 0 0 0 -1.6600000000000001,-1.3 a5.66,5.66 0 0 0 -2.45,-0.48000000000000004 a5.75,5.75 0 0 0 -4.29,1.6800000000000002 a7.51,7.51 0 0 0 -2,4.42 z" id="svg_13" fill="#ffffff" fill-opacity="1"/></g></g></svg>