<svg xmlns="http://www.w3.org/2000/svg" viewBox="0 0 181.34 63.76"><defs><style>.cls-1{fill:#683ab7;}.cls-2{fill:#6739b7;}.cls-3{fill:#dfdfdf;}</style></defs><g id="Layer_2_Image" data-name="Layer 2 Image"><path class="cls-1" d="M78.73,129.23a17.24,17.24,0,0,1-3.21,9.82,1.28,1.28,0,0,0,.3,1.77,1.24,1.24,0,0,0,.73.23,1.27,1.27,0,0,0,1-.53,19.85,19.85,0,0,0,3.68-11.28Z" transform="translate(-29.36 -93.43)"/><path class="cls-1" d="M72.88,142a17.41,17.41,0,0,1-29-12.93H41.37a19.95,19.95,0,0,0,33.19,14.83A1.26,1.26,0,1,0,72.88,142Z" transform="translate(-29.36 -93.43)"/><path class="cls-1" d="M87.28,129.27l0,.91-.92.1a1.26,1.26,0,0,0-1.12,1.07h0l-.3,1.94c0,.2-.06.39-.09.55l-.11.43,1.23.31-1.23-.31-.4,1.55a4.65,4.65,0,0,1-.2.64l-.24.64h0a1.26,1.26,0,0,0,.52,1.52l.84.51c-.3.65-.73,1.53-1,2.17l-.92-.33a1.25,1.25,0,0,0-1.51.53h0l-.26.43a7.39,7.39,0,0,1-.52.76L80,143.93l1,.74-1-.7-.19.25-1.45,1.59-.09.11,0,0-.1.09h0a1.25,1.25,0,0,0-.22,1.62l.51.8-.32.29L76.53,150l-.67-.68a1.26,1.26,0,0,0-1.56-.2h0l0,0h0l-1.34.82c-.14.09-.33.18-.51.27l-.28.13-.43.21-.39.19a2.84,2.84,0,0,0-.36.17,3.37,3.37,0,0,1-.54.23l-1.45.54.43,1.19-1.25.15.12.95-1.26.32a6.78,6.78,0,0,1-1.07.22h0l-.3-.91a1.26,1.26,0,0,0-1.39-.84h0l-.42.06-2.48.13-2.47-.13-.42-.06h0a1.26,1.26,0,0,0-1.39.84l-.31.91h0a7.45,7.45,0,0,1-1.12-.23L54.38,154l.12-.94a1.28,1.28,0,0,0-.82-1.35h0l-1.51-.56a3.28,3.28,0,0,1-.49-.21,2.73,2.73,0,0,0-.31-.15l-.43-.21-.41-.2-.3-.14a6.19,6.19,0,0,1-.56-.3l-1.32-.81h0a1.27,1.27,0,0,0-1.57.19l-.66.68-1.31-1-.58-.54.51-.79a1.28,1.28,0,0,0-.22-1.63h0l-.13-.12-.12-.13-1.39-1.53c-.14-.16-.22-.28-.23-.29l-1,.71,1-.75-1-1.28a6.78,6.78,0,0,1-.49-.74l-.25-.42h0A1.28,1.28,0,0,0,39.4,141l-.91.33c-.33-.63-.75-1.52-1.05-2.17l.83-.51a1.26,1.26,0,0,0,.53-1.51h0l-.24-.65a5.1,5.1,0,0,1-.22-.69l-.38-1.5-1.23.31,1.23-.31-.12-.43c0-.16-.05-.35-.08-.55l-.3-1.94h0a1.25,1.25,0,0,0-1.11-1.07l-.93-.1,0-1.14-2.54,0h0l.12,2.35a1.25,1.25,0,0,0,1.11,1.19l1.05.12.15,1,.11.7a.19.19,0,0,1,0,.07l.12.47.37,1.44a6.81,6.81,0,0,0,.2.67l-.87.54a1.3,1.3,0,0,0-.59,1,17.11,17.11,0,0,0,2.61,5.38,1.25,1.25,0,0,0,.7.21,1.54,1.54,0,0,0,.42-.07l.95-.34c.12.17.24.35.37.51l.92,1.23c0,.05.16.23.38.49l1.11,1.22-.55.88a1.25,1.25,0,0,0,.22,1.6l1.41,1.29.09.07,2.12,1.59.27.17a1.34,1.34,0,0,0,.61.15,1.27,1.27,0,0,0,.9-.36l.74-.76.42.26a6.13,6.13,0,0,0,.85.46l.25.12.44.21.48.23.22.11a4.94,4.94,0,0,0,.81.35l.51.19-.12,1a1.27,1.27,0,0,0,.83,1.33l.22.08.38.11,1.73.44a9.4,9.4,0,0,0,1.44.29l1,.16.19,0a1.26,1.26,0,0,0,1.19-.85l.34-1,2.15.11.06-1.26.07,1.26,2.15-.11.33,1a1.28,1.28,0,0,0,1.2.85l.19,0,1-.16a10,10,0,0,0,1.39-.27l1.77-.46.42-.12.19-.07a1.27,1.27,0,0,0,.83-1.33l-.13-1,.45-.17a4.54,4.54,0,0,0,.87-.37l.28-.13.43-.21.47-.23.21-.1a4.91,4.91,0,0,0,.81-.43l.46-.28.75.75a1.25,1.25,0,0,0,.89.36,1.31,1.31,0,0,0,.61-.15l.32-.2L79.4,151l.09-.07,1.42-1.28a1.28,1.28,0,0,0,.22-1.61l-.56-.88,1.15-1.26c.19-.23.31-.4.35-.45l.88-1.19a4.77,4.77,0,0,0,.4-.55l1,.34a1.2,1.2,0,0,0,.42.07,1.27,1.27,0,0,0,.7-.21,17.08,17.08,0,0,0,2.6-5.38,1.28,1.28,0,0,0-.59-1l-.86-.54a3.92,3.92,0,0,0,.18-.61l.39-1.5.12-.47s0,0,0-.07c0-.2.08-.44.12-.69l.14-1,1-.12a1.25,1.25,0,0,0,1.12-1.19l.11-2.1Z" transform="translate(-29.36 -93.43)"/><path class="cls-1" d="M57.51,130.66a1.26,1.26,0,0,0,1.12-1.4.49.49,0,0,0,0-.12H56.09c0,.14,0,.28,0,.42A1.26,1.26,0,0,0,57.51,130.66Z" transform="translate(-29.36 -93.43)"/><path class="cls-1" d="M74.89,129.21a13.54,13.54,0,0,1-4.64,10l-4.94-6.81a5.22,5.22,0,0,0,1.24-3.2H64a2.69,2.69,0,0,1-1.13,2h0v0a2.73,2.73,0,0,1-1.54.48,2.7,2.7,0,0,1-1.09-.23,1.21,1.21,0,0,0-.25-.08,1.12,1.12,0,0,0-.2-.18,1.27,1.27,0,0,0-1.77.28l-5.61,7.71a13.56,13.56,0,0,1-4.65-10.09H45.22A16.08,16.08,0,0,0,51.85,142l0,0,0,0a16.08,16.08,0,0,0,18.79,0l0,0,0,0a16.09,16.09,0,0,0,6.63-12.77ZM61.32,142.55a13.45,13.45,0,0,1-6.86-1.89l4.95-6.81a5.18,5.18,0,0,0,1.91.36,5.29,5.29,0,0,0,1.92-.36l4.95,6.81A13.48,13.48,0,0,1,61.32,142.55Z" transform="translate(-29.36 -93.43)"/></g><g id="CarSense"><path d="M44.24,120.89a16.72,16.72,0,0,0,4-.39,16.42,16.42,0,0,0,3.1-1.1l1,3.55a14.37,14.37,0,0,1-3.67,1.2,26,26,0,0,1-4.88.39,15.64,15.64,0,0,1-5.61-1,12.7,12.7,0,0,1-4.59-3,14.07,14.07,0,0,1-3.07-4.87,20.3,20.3,0,0,1,0-13.3,14,14,0,0,1,3.05-4.89,12.68,12.68,0,0,1,4.63-3,16.34,16.34,0,0,1,5.85-1,20.7,20.7,0,0,1,4.9.48,17,17,0,0,1,3.55,1.3L51.4,98.66,49.69,98a12.08,12.08,0,0,0-1.58-.51,14.6,14.6,0,0,0-1.63-.28,15.59,15.59,0,0,0-1.9-.1,12.35,12.35,0,0,0-4,.65,8.37,8.37,0,0,0-3.31,2.09A10.21,10.21,0,0,0,35,103.54a15.93,15.93,0,0,0-.84,5.49,16.14,16.14,0,0,0,.82,5.52,9.88,9.88,0,0,0,2.18,3.65,8.38,8.38,0,0,0,3.19,2A11.63,11.63,0,0,0,44.24,120.89Z" transform="translate(-29.36 -93.43)"/><path d="M57.06,103.56c.77-.38,1.49-.73,2.16-1a14.9,14.9,0,0,1,2-.75,15.83,15.83,0,0,1,2.07-.43,18.1,18.1,0,0,1,2.3-.14,13.61,13.61,0,0,1,3.43.41A6.65,6.65,0,0,1,71.72,103a6.27,6.27,0,0,1,1.75,2.52,10.55,10.55,0,0,1,.63,3.92V124.1H70.59l-.52-2.49H70a8.68,8.68,0,0,1-3.26,2.25,11,11,0,0,1-3.94.68,9.53,9.53,0,0,1-3-.46,7.3,7.3,0,0,1-2.38-1.3,5.8,5.8,0,0,1-1.56-2,6.45,6.45,0,0,1-.55-2.68,6.06,6.06,0,0,1,2.81-5.4,13.22,13.22,0,0,1,7.42-1.85h4.32v-1.92c0-1.63-.42-2.74-1.25-3.34a5.7,5.7,0,0,0-3.36-.89,11.91,11.91,0,0,0-2.86.41,15.58,15.58,0,0,0-3.67,1.56Zm12.81,10.13-3.55.09c-2.4.07-4.1.49-5.11,1.28a3.49,3.49,0,0,0-1.51,2.85,4,4,0,0,0,.33,1.71,2.82,2.82,0,0,0,.89,1.08,3.73,3.73,0,0,0,1.3.55,7.1,7.1,0,0,0,1.56.17,7.72,7.72,0,0,0,6.09-3.12Z" transform="translate(-29.36 -93.43)"/><path d="M80.19,124.1V101.54h3.17l.72,4.52a7.54,7.54,0,0,1,2.69-3.51,7.26,7.26,0,0,1,4.32-1.34,9.08,9.08,0,0,1,2.06.19,9.31,9.31,0,0,1,1.49.48l-.81,3.7a6.38,6.38,0,0,0-2.93-.68,6.72,6.72,0,0,0-2.57.48,5.74,5.74,0,0,0-2.06,1.44,6.65,6.65,0,0,0-1.39,2.38,9.5,9.5,0,0,0-.51,3.24V124.1Z" transform="translate(-29.36 -93.43)"/><path class="cls-2" d="M107.22,93.43a24.85,24.85,0,0,1,4.27.36,15.67,15.67,0,0,1,4.08,1.32l-1.06,3.65a20.3,20.3,0,0,0-3.72-1.37,14.15,14.15,0,0,0-3.38-.41,7,7,0,0,0-4.32,1.2,4,4,0,0,0-1.58,3.36,3.83,3.83,0,0,0,1.17,2.93,9.83,9.83,0,0,0,3.87,1.92l3,1c2.75.87,4.7,2,5.83,3.53a8,8,0,0,1,1.71,5,7.93,7.93,0,0,1-3,6.31,10.28,10.28,0,0,1-3.34,1.73,14.11,14.11,0,0,1-4.22.6,27.76,27.76,0,0,1-4.68-.41,18.57,18.57,0,0,1-4.73-1.51l1-3.6a20.07,20.07,0,0,0,4,1.48,16.85,16.85,0,0,0,4.12.48,7.87,7.87,0,0,0,4.42-1.2,4,4,0,0,0,1.82-3.55,4.73,4.73,0,0,0-.26-1.61,4.09,4.09,0,0,0-.91-1.41,6.67,6.67,0,0,0-1.75-1.25,17.82,17.82,0,0,0-2.79-1.1l-3-1A12.19,12.19,0,0,1,98.77,107a6.82,6.82,0,0,1-1.78-5,8,8,0,0,1,2.62-6.31Q102.22,93.43,107.22,93.43Z" transform="translate(-29.36 -93.43)"/><path class="cls-2" d="M141.59,113.3H125.41v.2a7.76,7.76,0,0,0,2,5.76,7.55,7.55,0,0,0,5.54,2,15.72,15.72,0,0,0,3.24-.29,17.71,17.71,0,0,0,3.1-1l.86,3.12a15,15,0,0,1-3.28,1,20.2,20.2,0,0,1-4.06.39,15.1,15.1,0,0,1-4.58-.68,10.38,10.38,0,0,1-3.77-2.08,9.76,9.76,0,0,1-2.57-3.63,13.54,13.54,0,0,1-.94-5.28,13.81,13.81,0,0,1,.8-4.8A10.36,10.36,0,0,1,124,104.4a10,10,0,0,1,3.48-2.35,11.94,11.94,0,0,1,4.58-.84,10.16,10.16,0,0,1,3.91.72,8.55,8.55,0,0,1,4.92,5.13,11.57,11.57,0,0,1,.68,4Zm-4.37-3a8.69,8.69,0,0,0-.31-2.33,5.44,5.44,0,0,0-1-1.89,4.65,4.65,0,0,0-1.66-1.3,5.66,5.66,0,0,0-2.45-.48,5.75,5.75,0,0,0-4.29,1.68,7.51,7.51,0,0,0-2,4.42Z" transform="translate(-29.36 -93.43)"/><path class="cls-2" d="M150.8,124.1h-4.22V101.54h3.31l.62,3.12A12.91,12.91,0,0,1,154,102.1a9.59,9.59,0,0,1,4.25-.89,7.4,7.4,0,0,1,5.42,1.94,7.23,7.23,0,0,1,2,5.4V124.1h-4.22V109.18a4.78,4.78,0,0,0-1.08-3.29,4.15,4.15,0,0,0-3.29-1.23,8.68,8.68,0,0,0-6.29,3Z" transform="translate(-29.36 -93.43)"/><path class="cls-2" d="M184.88,105.77a13.17,13.17,0,0,0-2.88-1.06,12,12,0,0,0-2.59-.29,5.7,5.7,0,0,0-3.41.84,2.66,2.66,0,0,0-1.1,2.24,2.34,2.34,0,0,0,.77,1.75,8.3,8.3,0,0,0,3.21,1.46l1.44.43a12.57,12.57,0,0,1,4.87,2.48,5.24,5.24,0,0,1,1.66,4.1,6.06,6.06,0,0,1-2.28,4.94,9.74,9.74,0,0,1-6.36,1.88,21.49,21.49,0,0,1-4.15-.39,14.88,14.88,0,0,1-3.44-1.05l1-3.32a15.48,15.48,0,0,0,3,1.08,13.22,13.22,0,0,0,3.31.41,6.53,6.53,0,0,0,3.43-.77,2.73,2.73,0,0,0,1.27-2.54,2.33,2.33,0,0,0-1.1-2.18,14.89,14.89,0,0,0-3.17-1.28l-1.49-.48a11.45,11.45,0,0,1-4.63-2.52,5.27,5.27,0,0,1-1.51-3.91,5.71,5.71,0,0,1,.62-2.64,5.92,5.92,0,0,1,1.71-2,8.14,8.14,0,0,1,2.57-1.28,11.22,11.22,0,0,1,3.26-.45,20.16,20.16,0,0,1,3.48.31,14.78,14.78,0,0,1,3.43,1Z" transform="translate(-29.36 -93.43)"/><path class="cls-2" d="M210.71,113.3H194.53v.2a7.76,7.76,0,0,0,2,5.76,7.55,7.55,0,0,0,5.54,2,15.72,15.72,0,0,0,3.24-.29,17.71,17.71,0,0,0,3.1-1l.86,3.12a15,15,0,0,1-3.28,1,20.2,20.2,0,0,1-4.06.39,15.1,15.1,0,0,1-4.58-.68,10.38,10.38,0,0,1-3.77-2.08,9.76,9.76,0,0,1-2.57-3.63,13.54,13.54,0,0,1-.94-5.28,13.81,13.81,0,0,1,.8-4.8,10.36,10.36,0,0,1,2.23-3.67,10,10,0,0,1,3.48-2.35,11.94,11.94,0,0,1,4.58-.84,10.16,10.16,0,0,1,3.91.72,8.55,8.55,0,0,1,4.92,5.13,11.57,11.57,0,0,1,.68,4Zm-4.37-3A8.69,8.69,0,0,0,206,108a5.44,5.44,0,0,0-1-1.89,4.65,4.65,0,0,0-1.66-1.3,5.66,5.66,0,0,0-2.45-.48,5.75,5.75,0,0,0-4.29,1.68,7.51,7.51,0,0,0-2,4.42Z" transform="translate(-29.36 -93.43)"/></g><g id="_By_Digital_Universe" data-name="© By Digital Universe"><path class="cls-3" d="M99.18,135.56a4.13,4.13,0,0,1,1.45.25,3.34,3.34,0,0,1,1.2.73,3.5,3.5,0,0,1,.82,1.21,4.26,4.26,0,0,1,.31,1.7,4.32,4.32,0,0,1-.31,1.67,3.59,3.59,0,0,1-.84,1.22,3.66,3.66,0,0,1-1.22.75,4.43,4.43,0,0,1-1.46.25,4.33,4.33,0,0,1-1.45-.25,3.37,3.37,0,0,1-2-1.94,4.26,4.26,0,0,1-.31-1.7,4.15,4.15,0,0,1,.31-1.67,3.52,3.52,0,0,1,2.06-2A4.43,4.43,0,0,1,99.18,135.56Zm0,.41a3.72,3.72,0,0,0-1.29.22,2.94,2.94,0,0,0-1.06.67A3.12,3.12,0,0,0,96.1,138a3.86,3.86,0,0,0-.27,1.5,4.23,4.23,0,0,0,.26,1.53,3.14,3.14,0,0,0,.72,1.09,3,3,0,0,0,1,.64,3.57,3.57,0,0,0,1.27.22,3.67,3.67,0,0,0,1.28-.22,3.07,3.07,0,0,0,1.07-.67,3.26,3.26,0,0,0,.73-1.09,3.86,3.86,0,0,0,.27-1.5,4,4,0,0,0-.27-1.53,2.86,2.86,0,0,0-1.76-1.73A3.57,3.57,0,0,0,99.18,136Zm.29,5a1.75,1.75,0,0,0,.48-.06,2.23,2.23,0,0,0,.4-.16l.17.58a2.68,2.68,0,0,1-1.13.23,2.42,2.42,0,0,1-.81-.14,1.67,1.67,0,0,1-.67-.39,1.71,1.71,0,0,1-.46-.65,2.36,2.36,0,0,1-.17-.92,2.21,2.21,0,0,1,.16-.87,1.93,1.93,0,0,1,.43-.67,1.91,1.91,0,0,1,.67-.42,2.33,2.33,0,0,1,.85-.14,3,3,0,0,1,.52,0,3,3,0,0,1,.59.17l-.17.59a1.78,1.78,0,0,0-.85-.23,1.37,1.37,0,0,0-1,.39,1.5,1.5,0,0,0-.39,1.11,2,2,0,0,0,.12.73,1.35,1.35,0,0,0,.32.47,1.13,1.13,0,0,0,.45.26A1.82,1.82,0,0,0,99.47,141Z" transform="translate(-29.36 -93.43)"/><path class="cls-3" d="M108.8,135.67a2.79,2.79,0,0,1,1.76.49,1.67,1.67,0,0,1,.63,1.42,1.46,1.46,0,0,1-.39,1.08,2.11,2.11,0,0,1-1,.55,2.23,2.23,0,0,1,.63.21,1.73,1.73,0,0,1,.5.39,1.8,1.8,0,0,1,.34.57,2,2,0,0,1,.13.74,1.79,1.79,0,0,1-.21.86,1.87,1.87,0,0,1-.56.66,2.52,2.52,0,0,1-.85.43,3.4,3.4,0,0,1-1.08.16h-2.19v-7.56Zm-1.16,3.16h.9a3.45,3.45,0,0,0,.57-.05,1.25,1.25,0,0,0,.49-.18,1.07,1.07,0,0,0,.34-.36,1.19,1.19,0,0,0,.12-.58,1,1,0,0,0-.39-.84,1.86,1.86,0,0,0-1-.26h-1Zm0,3.51h1a3.21,3.21,0,0,0,.63-.06,1.5,1.5,0,0,0,.53-.23,1.13,1.13,0,0,0,.37-.41,1.33,1.33,0,0,0,.14-.63,1.1,1.1,0,0,0-.17-.62,1.24,1.24,0,0,0-.42-.4,2,2,0,0,0-.6-.22,3.11,3.11,0,0,0-.67-.07h-.77Z" transform="translate(-29.36 -93.43)"/><path class="cls-3" d="M112,137.59h1.12l1.2,3.23.41,1.34h0l.4-1.34,1.1-3.23h1.08l-2.18,6.12a4.57,4.57,0,0,1-.9,1.6,3.39,3.39,0,0,1-1.3.84l-.46-.84a3.14,3.14,0,0,0,1-.63,2.67,2.67,0,0,0,.68-1.13l.11-.32Z" transform="translate(-29.36 -93.43)"/><path class="cls-3" d="M123.51,135.67a4.75,4.75,0,0,1,1.49.23,3.21,3.21,0,0,1,1.18.68,3.13,3.13,0,0,1,.78,1.12,4.08,4.08,0,0,1,.29,1.58,4.6,4.6,0,0,1-.34,1.85,3.34,3.34,0,0,1-.91,1.22,3.46,3.46,0,0,1-1.32.68,6.3,6.3,0,0,1-1.59.2h-2v-7.56Zm-1.35,6.65H123a4.66,4.66,0,0,0,1.13-.13,2.34,2.34,0,0,0,1.67-1.4,3.62,3.62,0,0,0,.26-1.51,3.19,3.19,0,0,0-.19-1.15,2.27,2.27,0,0,0-.55-.85,2.52,2.52,0,0,0-.87-.52,3.39,3.39,0,0,0-1.13-.18h-1.14Z" transform="translate(-29.36 -93.43)"/><path class="cls-3" d="M129.31,136.14a.66.66,0,0,1-.48-.19.6.6,0,0,1-.19-.46.64.64,0,0,1,.19-.47.66.66,0,0,1,.48-.19.67.67,0,0,1,.47.19.65.65,0,0,1,.2.47.61.61,0,0,1-.2.46A.67.67,0,0,1,129.31,136.14Zm-.53,7.09v-5.64h1.06v5.64Z" transform="translate(-29.36 -93.43)"/><path class="cls-3" d="M131.48,139.46a2,2,0,0,1,.17-.83,1.7,1.7,0,0,1,.47-.62,2.2,2.2,0,0,1,.73-.38,3.28,3.28,0,0,1,.91-.12,2,2,0,0,1,.35,0l.34.06h2.43v.78h-.37l-1-.13a1.79,1.79,0,0,1,.48,1.21,2,2,0,0,1-.17.83,1.7,1.7,0,0,1-.47.62,1.91,1.91,0,0,1-.72.38,3.28,3.28,0,0,1-.91.13,4.09,4.09,0,0,1-.65,0,.73.73,0,0,0-.38.24.56.56,0,0,0-.11.32.36.36,0,0,0,.19.37,1,1,0,0,0,.49.1h1.49a2.14,2.14,0,0,1,1.44.43,1.43,1.43,0,0,1,.49,1.15,1.63,1.63,0,0,1-.2.84,2,2,0,0,1-.58.64,2.88,2.88,0,0,1-.92.4,5,5,0,0,1-1.21.14,3.75,3.75,0,0,1-1.95-.44,1.42,1.42,0,0,1-.73-1.29,1,1,0,0,1,.29-.74,1.79,1.79,0,0,1,.73-.46,1.34,1.34,0,0,1-.36-.35.93.93,0,0,1-.12-.5,1,1,0,0,1,.23-.64,1.61,1.61,0,0,1,.6-.42,1.66,1.66,0,0,1-.75-.63A1.89,1.89,0,0,1,131.48,139.46Zm1.28,3.77a.91.91,0,0,0-.61.86c0,.71.57,1.06,1.71,1.06a3,3,0,0,0,.85-.1,1.53,1.53,0,0,0,.56-.25,1,1,0,0,0,.32-.35.78.78,0,0,0,.1-.39.66.66,0,0,0-.34-.67,2,2,0,0,0-.86-.16Zm2.2-3.74a1.21,1.21,0,0,0-.33-.94,1.41,1.41,0,0,0-1.74,0,1.15,1.15,0,0,0-.33.89,1.19,1.19,0,0,0,.33.92,1.45,1.45,0,0,0,1.74,0A1.09,1.09,0,0,0,135,139.49Z" transform="translate(-29.36 -93.43)"/><path class="cls-3" d="M138.75,136.14a.64.64,0,0,1-.47-.19.61.61,0,0,1-.2-.46.65.65,0,0,1,.2-.47.64.64,0,0,1,.47-.19.66.66,0,0,1,.47.19.61.61,0,0,1,.2.47.58.58,0,0,1-.2.46A.66.66,0,0,1,138.75,136.14Zm-.52,7.09v-5.64h1.05v5.64Z" transform="translate(-29.36 -93.43)"/><path class="cls-3" d="M144,138.38h-1.65v3.28a.63.63,0,0,0,.21.56.91.91,0,0,0,.54.15,2.61,2.61,0,0,0,.53-.06,4.83,4.83,0,0,0,.51-.12l.16.8a3.92,3.92,0,0,1-.61.17,4,4,0,0,1-.78.07,1.68,1.68,0,0,1-1.22-.37,1.37,1.37,0,0,1-.39-1.06v-3.42h-.84v-.79h.84v-1.8h1v1.8H144Z" transform="translate(-29.36 -93.43)"/><path class="cls-3" d="M145.44,138.09l.54-.25a3.41,3.41,0,0,1,.5-.19,4.36,4.36,0,0,1,.52-.11,5,5,0,0,1,.57,0,3.28,3.28,0,0,1,.86.1,1.64,1.64,0,0,1,.67.34,1.53,1.53,0,0,1,.44.63,2.54,2.54,0,0,1,.16,1v3.67h-.88l-.13-.62h0a2.19,2.19,0,0,1-.82.56,2.8,2.8,0,0,1-1,.17,2.19,2.19,0,0,1-.75-.12,1.73,1.73,0,0,1-.6-.32,1.39,1.39,0,0,1-.39-.51,1.6,1.6,0,0,1-.14-.67,1.52,1.52,0,0,1,.71-1.35,3.27,3.27,0,0,1,1.85-.46h1.08v-.48a1,1,0,0,0-.31-.84,1.42,1.42,0,0,0-.84-.22,2.88,2.88,0,0,0-.72.1,4.13,4.13,0,0,0-.91.39Zm3.2,2.54-.89,0a2.19,2.19,0,0,0-1.27.32.85.85,0,0,0-.38.71.94.94,0,0,0,.08.43.84.84,0,0,0,.22.27,1.1,1.1,0,0,0,.33.14,2.34,2.34,0,0,0,.39,0,1.84,1.84,0,0,0,.8-.19,1.9,1.9,0,0,0,.72-.59Z" transform="translate(-29.36 -93.43)"/><path class="cls-3" d="M151.29,143.23v-8.52h1v8.52Z" transform="translate(-29.36 -93.43)"/><path class="cls-3" d="M156.72,135.67h1.1v4.52a2.62,2.62,0,0,0,.45,1.73,1.75,1.75,0,0,0,1.42.52,1.69,1.69,0,0,0,1.43-.58,2.39,2.39,0,0,0,.45-1.52v-4.67h1.1v4.63a3,3,0,0,1-.79,2.29,3.06,3.06,0,0,1-2.19.75,2.69,2.69,0,0,1-3-3.1Z" transform="translate(-29.36 -93.43)"/><path class="cls-3" d="M165.41,143.23h-1.06v-5.64h.83l.15.78a3.39,3.39,0,0,1,.88-.64,2.44,2.44,0,0,1,1.07-.22,1.86,1.86,0,0,1,1.35.48,1.82,1.82,0,0,1,.49,1.35v3.89h-1.05V139.5a1.18,1.18,0,0,0-.27-.82,1,1,0,0,0-.82-.31,2.14,2.14,0,0,0-1.57.76Z" transform="translate(-29.36 -93.43)"/><path class="cls-3" d="M171.45,136.14A.64.64,0,0,1,171,136a.61.61,0,0,1-.2-.46.65.65,0,0,1,.2-.47.68.68,0,0,1,.94,0,.61.61,0,0,1,.2.47.58.58,0,0,1-.2.46A.64.64,0,0,1,171.45,136.14Zm-.52,7.09v-5.64h1v5.64Z" transform="translate(-29.36 -93.43)"/><path class="cls-3" d="M177.18,137.59h1.13l-2.1,5.64h-1l-2.12-5.64h1.14l1.27,3.88.22.88h0l.2-.87Z" transform="translate(-29.36 -93.43)"/><path class="cls-3" d="M184,140.53h-4v.05a2,2,0,0,0,.51,1.44,1.91,1.91,0,0,0,1.39.5,4,4,0,0,0,.81-.07,5.1,5.1,0,0,0,.77-.24l.22.78a4,4,0,0,1-.82.25,4.77,4.77,0,0,1-1,.1,3.78,3.78,0,0,1-1.14-.17,2.75,2.75,0,0,1-1-.52,2.53,2.53,0,0,1-.64-.91,3.5,3.5,0,0,1-.23-1.32,3.29,3.29,0,0,1,.2-1.2,2.65,2.65,0,0,1,.55-.92,2.51,2.51,0,0,1,.87-.58,3,3,0,0,1,1.15-.21,2.59,2.59,0,0,1,1,.18,2.15,2.15,0,0,1,.75.5,2.38,2.38,0,0,1,.48.78,2.93,2.93,0,0,1,.17,1Zm-1.1-.76a2.2,2.2,0,0,0-.07-.58,1.6,1.6,0,0,0-.24-.47,1.14,1.14,0,0,0-.42-.33,1.59,1.59,0,0,0-1.68.3,1.93,1.93,0,0,0-.52,1.11Z" transform="translate(-29.36 -93.43)"/><path class="cls-3" d="M185.17,143.23v-5.64H186l.18,1.13a2,2,0,0,1,.67-.88,1.84,1.84,0,0,1,1.08-.33,2.55,2.55,0,0,1,.52,0l.37.12-.2.93a1.52,1.52,0,0,0-.32-.12,1.73,1.73,0,0,0-.42,0,1.69,1.69,0,0,0-.64.12,1.4,1.4,0,0,0-.51.36,1.65,1.65,0,0,0-.35.59,2.3,2.3,0,0,0-.13.81v2.92Z" transform="translate(-29.36 -93.43)"/><path class="cls-3" d="M192.83,138.65a3.49,3.49,0,0,0-.73-.27,2.79,2.79,0,0,0-.64-.07,1.43,1.43,0,0,0-.86.21.68.68,0,0,0-.27.56.59.59,0,0,0,.19.44,2.22,2.22,0,0,0,.81.36l.35.11a3.08,3.08,0,0,1,1.22.62,1.3,1.3,0,0,1,.42,1,1.51,1.51,0,0,1-.57,1.24,2.45,2.45,0,0,1-1.59.47,5,5,0,0,1-1-.1,3.64,3.64,0,0,1-.86-.26l.25-.83a4.55,4.55,0,0,0,.76.27,3.31,3.31,0,0,0,.83.1,1.66,1.66,0,0,0,.86-.19.69.69,0,0,0,.31-.64.58.58,0,0,0-.27-.54,3.65,3.65,0,0,0-.79-.32l-.38-.12a3,3,0,0,1-1.16-.63,1.33,1.33,0,0,1-.37-1,1.45,1.45,0,0,1,.15-.66,1.49,1.49,0,0,1,.43-.5,2,2,0,0,1,.64-.32,2.67,2.67,0,0,1,.82-.11,5.27,5.27,0,0,1,.87.07,4,4,0,0,1,.85.26Z" transform="translate(-29.36 -93.43)"/><path class="cls-3" d="M199.28,140.53h-4v.05a2,2,0,0,0,.51,1.44,1.9,1.9,0,0,0,1.38.5,3.88,3.88,0,0,0,.81-.07,4.87,4.87,0,0,0,.78-.24l.21.78a3.79,3.79,0,0,1-.82.25,4.68,4.68,0,0,1-1,.1,3.9,3.9,0,0,1-1.15-.17,2.62,2.62,0,0,1-.94-.52,2.42,2.42,0,0,1-.64-.91,3.31,3.31,0,0,1-.24-1.32,3.51,3.51,0,0,1,.2-1.2,2.68,2.68,0,0,1,.56-.92,2.51,2.51,0,0,1,.87-.58,3,3,0,0,1,1.15-.21,2.54,2.54,0,0,1,1,.18,2.15,2.15,0,0,1,.75.5,2.22,2.22,0,0,1,.48.78,2.93,2.93,0,0,1,.17,1Zm-1.09-.76a2.2,2.2,0,0,0-.08-.58,1.23,1.23,0,0,0-.24-.47,1.2,1.2,0,0,0-.41-.33,1.6,1.6,0,0,0-1.69.3,2,2,0,0,0-.51,1.11Z" transform="translate(-29.36 -93.43)"/></g></svg>